<?xml version="1.0" standalone="no"?><!-- Generator: Gravit.io --><svg xmlns="http://www.w3.org/2000/svg" xmlns:xlink="http://www.w3.org/1999/xlink" style="isolation:isolate" viewBox="0 0 20 20" width="20" height="20"><defs><clipPath id="_clipPath_EeZtGlEbeD9QJdqT10wdWFS8axUrlKUy"><rect width="20" height="20"/></clipPath></defs><g clip-path="url(#_clipPath_EeZtGlEbeD9QJdqT10wdWFS8axUrlKUy)"><g id="Logo"><g id="Group"><path d=" M 3.333 15.833 C 3.333 15.373 3.707 15 4.167 15 C 4.627 15 5 15.373 5 15.833 C 5 16.293 4.627 16.667 4.167 16.667 C 3.707 16.667 3.333 16.293 3.333 15.833 Z " fill="rgb(85,93,102)" vector-effect="non-scaling-stroke" stroke-width="0.208" stroke="rgb(85,93,102)" stroke-linejoin="miter" stroke-linecap="butt" stroke-miterlimit="4"/><path d=" M 17.5 11.667 L 14.458 11.667 L 16.75 9.375 C 17.708 8.417 17.708 6.833 16.75 5.875 L 14.167 3.25 C 13.208 2.292 11.625 2.292 10.667 3.25 L 8.333 5.542 L 8.333 2.5 C 8.333 1.125 7.208 0 5.833 0 L 2.5 0 C 1.125 0 0 1.125 0 2.5 L 0 17.5 C 0 18.875 1.125 20 2.5 20 L 17.5 20 C 18.875 20 20 18.875 20 17.5 L 20 14.167 C 20 12.792 18.875 11.667 17.5 11.667 Z  M 11.833 4.417 C 12.167 4.125 12.667 4.125 13 4.417 L 15.625 7.042 C 15.917 7.375 15.917 7.875 15.625 8.208 L 8.333 15.417 L 8.333 7.917 L 11.833 4.417 Z  M 6.625 17.625 C 6.583 18.042 6.208 18.333 5.833 18.333 L 2.5 18.333 C 2.042 18.333 1.667 17.958 1.667 17.5 L 1.667 2.5 C 1.667 2.042 2.042 1.667 2.5 1.667 L 5.833 1.667 C 6.292 1.667 6.667 2.042 6.667 2.5 L 6.667 17.25 L 6.625 17.625 Z  M 18.333 17.5 C 18.333 17.958 17.958 18.333 17.5 18.333 L 8.167 18.333 C 8.208 18.167 8.25 18 8.292 17.833 L 12.792 13.333 L 17.5 13.333 C 17.958 13.333 18.333 13.708 18.333 14.167 L 18.333 17.5 Z " fill="rgb(85,93,102)" vector-effect="non-scaling-stroke" stroke-width="0.208" stroke="rgb(85,93,102)" stroke-linejoin="miter" stroke-linecap="butt" stroke-miterlimit="4"/></g></g></g></svg>